<svg xmlns="http://www.w3.org/2000/svg" fill="none" viewBox="0 0 50 50"><path fill="#000" fill-rule="evenodd" d="M10.337 23.366C11.162 13.074 19.706 5 30.085 5c10.922 0 19.781 8.942 19.813 20 0 11.058-8.859 20-19.813 20-10.237 0-18.643-7.837-19.701-17.86L1 28.88l9.337-5.514Zm3.56 3.122c.758 8.356 7.71 14.89 16.188 14.89a16.08 16.08 0 0 0 10.84-4.196h-13.92l-3.683-4.488h13.24l.921-7.98-1.365.224-.477 4.359-.063.48-5.62 2.853.032-.448.571-6.218.095-.866-1.365.257-.064.865-.317 3.462-5.588 2.884.476-6.186v-.192l.063-.673-1.365.256-.063.834v.352l-.032.513-.19 2.596-5.494 2.885.254-5.32.064-.866v-.192l.032-.674-3.17.589Zm27.376 10.368a16.523 16.523 0 0 0 2.762-20.325l-1.79 13.31-5.62 2.853 5.208-.032-.56 4.194Zm1.853-21.694-6.31 3.59.445-3.846-7.398 4.263.349-3.814-7.271 4.23.254-3.814-8.896 5.254c1.747-7.163 8.147-12.467 15.786-12.467 5.342 0 10.079 2.594 13.041 6.604Z" clip-rule="evenodd"/><path fill="url(#a)" fill-rule="evenodd" d="M10.337 23.366C11.162 13.074 19.706 5 30.085 5c10.922 0 19.781 8.942 19.813 20 0 11.058-8.859 20-19.813 20-10.237 0-18.643-7.837-19.701-17.86L1 28.88l9.337-5.514Zm3.56 3.122c.758 8.356 7.71 14.89 16.188 14.89a16.08 16.08 0 0 0 10.84-4.196h-13.92l-3.683-4.488h13.24l.921-7.98-1.365.224-.477 4.359-.063.48-5.62 2.853.032-.448.571-6.218.095-.866-1.365.257-.064.865-.317 3.462-5.588 2.884.476-6.186v-.192l.063-.673-1.365.256-.063.834v.352l-.032.513-.19 2.596-5.494 2.885.254-5.32.064-.866v-.192l.032-.674-3.17.589Zm27.376 10.368a16.523 16.523 0 0 0 2.762-20.325l-1.79 13.31-5.62 2.853 5.208-.032-.56 4.194Zm1.853-21.694-6.31 3.59.445-3.846-7.398 4.263.349-3.814-7.271 4.23.254-3.814-8.896 5.254c1.747-7.163 8.147-12.467 15.786-12.467 5.342 0 10.079 2.594 13.041 6.604Z" clip-rule="evenodd"/><defs><linearGradient id="a" x1="1.087" x2="44.517" y1="10.053" y2="12.127" gradientUnits="userSpaceOnUse"><stop stop-color="#10CFD9"/><stop offset="1" stop-color="#C22EAB"/></linearGradient></defs></svg>