<svg xmlns="http://www.w3.org/2000/svg" fill="none" stroke="gray" stroke-width="1.5" opacity=".3" viewBox="0 0 2553 1661"><path d="m2551 278-932 404v297l932 405"/><path d="m2551 1245-818-266V682l818-266M1 3l1047 679v297L1 1660"/><path d="m637 1 525 681v297l-524 681M1914 1l-524 681v297l522 681M1275 1l1 681v297l-1 681"/><path d="M2551 2 1504 682v297l1045 681M1 416l818 266v297L1 1245"/><path d="m1 278 933 404v297L1 1383"/><path d="m1 416 818 266v297L1 1245m2550-829-818 266v297l818 266"/><path d="m2551 1038-818-133H819L1 1038m2550-414-818 132H819L1 624m2550-210H1m2550-57H1m2550 948H1m2550 76H1m2550 104H1m2550 153H1M2551 281H1m2550-104H1M2551 25H1m2550 1223H1"/><path d="M819 979h914V682H819v297Z"/><path d="M799 986h954V676H799v310Z"/><path d="M777 993h998V668H777v325Z"/><path d="M752 1001h1048V660H752v341Z"/><path d="M725 1010h1102V651H725v359Z"/><path d="M695 1020h1162V642H695v378Z"/><path d="M661 1030h1230V631H661v399Z"/><path d="M623 1043h1306V618H623v425Z"/><path d="M581 1057h1391V604H581v453Z"/><path d="M532 1072h1488V589H532v483Z"/><path d="M476 1091h1600V570H476v521Z"/><path d="M411 1112h1731V549H411v563Z"/><path d="M334 1137h1884V524H334v613Z"/><path d="M242 1167h2069V494H242v673Z"/><path d="M132 1203h2289V458H132v745Z"/></svg>