<svg xmlns="http://www.w3.org/2000/svg" fill="none" stroke="gray" opacity=".3" viewBox="0 0 1920 3313"><path d="m121 125 1 62c6 449 491 726 881 504l56-32a552 552 0 0 1 825 476l1 147c2 305 303 518 591 418"/><path d="m107 161 1 62c6 448 491 726 881 504l56-32a552 552 0 0 1 825 475l1 148c2 305 302 518 591 418"/><path d="m93 197 1 61c6 449 491 726 881 504l56-32a552 552 0 0 1 824 476l1 147c3 305 303 518 592 419"/><path d="m79 232 1 62c6 449 491 726 881 504l56-32a552 552 0 0 1 824 475l1 148c2 305 303 518 592 418"/><path d="m65 268 1 62c6 448 491 725 881 503l56-31a552 552 0 0 1 824 475l1 147c2 305 303 518 592 419"/><path d="m51 303 1 62c6 449 491 726 881 504l56-32a552 552 0 0 1 824 476l1 147c2 305 303 518 591 418"/><path d="m37 339 1 62c6 448 491 726 881 504l56-32a552 552 0 0 1 824 475l1 148c2 305 303 518 591 418"/><path d="m23 375 1 62c6 448 491 725 881 503l56-32a552 552 0 0 1 824 476l1 147c2 305 303 518 591 419"/><path d="M9 410v62c7 449 492 726 881 504l56-32a552 552 0 0 1 825 475l1 148c2 305 303 518 591 418"/><path d="M-5 446v62c7 448 492 726 881 503l56-31a552 552 0 0 1 825 475l1 147c2 305 303 518 591 419"/><path d="m-20 481 1 62c7 449 492 726 881 504l56-32a552 552 0 0 1 825 476l1 147c2 305 303 518 591 418"/><path d="m-34 517 1 62c7 448 492 726 881 504l56-32a552 552 0 0 1 825 475l1 148c2 305 303 518 591 418"/><path d="m-48 553 1 62c6 448 491 725 881 503l56-32a552 552 0 0 1 825 476l1 147c2 305 303 518 591 419"/><path d="m-62 588 1 62c6 449 491 726 881 504l56-32a552 552 0 0 1 825 475l1 148c2 305 303 518 591 418"/><path d="m-76 624 1 62c6 448 491 726 881 504l56-32a552 552 0 0 1 825 475l1 148c2 305 303 517 591 418"/><path d="m-90 659 1 62c6 448 491 725 881 503l56-32a552 552 0 0 1 825 476l1 147c2 305 302 518 591 419"/><path d="m-104 693 1 62c6 449 491 726 881 504l56-32a552 552 0 0 1 824 476l1 147c2 305 303 518 592 418"/><path d="m-118 728 1 62c6 449 491 726 881 504l56-32a552 552 0 0 1 824 475l1 148c2 305 303 518 592 418"/><path d="m-132 763 1 62c6 448 491 726 881 504l56-32a552 552 0 0 1 824 475l1 148c2 305 303 517 592 418"/><path d="m-146 798 1 62c6 448 491 725 881 503l56-32a552 552 0 0 1 824 476l1 147c2 305 303 518 591 419"/><path d="m-160 832 1 62c6 449 491 726 881 504l56-32a552 552 0 0 1 824 476l1 147c2 305 303 518 591 418"/><path d="m-174 867 1 62c6 449 491 726 881 504l56-32a552 552 0 0 1 824 475l1 148c2 305 303 518 591 418"/><path d="M-188 902v62c7 448 492 726 881 504l56-32a552 552 0 0 1 825 475l1 148c2 305 303 518 591 418"/><path d="M-202 937v62c7 448 492 725 881 503l56-32a552 552 0 0 1 825 476l1 147c2 305 303 518 591 419"/><path d="m-217 971 1 62c7 449 492 726 881 504l56-32a552 552 0 0 1 825 476l1 147c2 305 303 518 591 418"/><path d="m-231 1006 1 62c7 449 492 726 881 504l56-32a552 552 0 0 1 825 476l1 147c2 305 303 518 591 418"/><path d="m-245 1041 1 62c6 448 491 726 881 504l56-32a552 552 0 0 1 825 475l1 148c2 305 303 518 591 418"/><path d="m-259 1076 1 62c6 448 491 725 881 503l56-31a552 552 0 0 1 825 475l1 147c2 305 303 518 591 419"/><path d="m-273 1111 1 61c6 449 491 726 881 504l56-32a552 552 0 0 1 825 476l1 147c2 305 303 518 591 419"/></svg>