<svg xmlns="http://www.w3.org/2000/svg" viewBox="0 0 114 100"><path fill-rule="evenodd" d="m34.44.59-.3.06.4 1.15c4.19 12.24 4.88 28.17 1.86 42.57-4.68 22.27-16.57 41.08-33.93 53.7a12.49 12.49 0 0 0-1.7 1.35c.28 0 4.87-1.83 6.8-2.7 18.24-8.26 31.19-22.99 36.58-41.6l.64-2.24 1.27 1.42a410.33 410.33 0 0 1 17.76 21.8c12.43 16.8 26.28 22.84 42.32 18.44a51.7 51.7 0 0 0 7.74-2.87c.23-.13-.18-.3-2.54-1.04-11.61-3.67-24.04-9.94-37.86-19.1a83.46 83.46 0 0 1-6.57-4.63 882 882 0 0 0-3.46-2.73 577.55 577.55 0 0 1-6.64-5.28 348.64 348.64 0 0 1-7.62-6.33c-.7-.6-1.79-1.56-2.43-2.13l-1.17-1.04.41-2.2c1.04-5.43 1.62-11.3 1.91-19.14.29-7.6.93-14.83 1.74-19.58.36-2.14.39-2.03-.54-2.52a52.08 52.08 0 0 1-3.2-2.08C42.42 1.45 41.36.94 39.1.59c-.99-.15-3.95-.16-4.65 0Zm35.13 14.03c-.43 6.08-3.26 10.54-11.03 17.39-5.35 4.71-8.24 7.56-9.89 9.75-.96 1.28-.94 1.3.7.8 5.18-1.61 9.36-3.7 15.97-8.02 8.77-5.71 11.26-7.09 15.31-8.48 1.95-.67 1.89-.56 1.58-2.66-.82-5.62-5.2-9.39-11.9-10.23l-.64-.08-.1 1.53ZM13.33 32.3c.02.55 1.02 4.7 1.56 6.51 1.9 6.34 4.8 10.06 9.15 11.68 1.17.43 3.2.9 3.33.77.61-.65.64-7.27.04-9.2-1.45-4.6-5.32-7.74-11.5-9.34-2.3-.6-2.59-.64-2.58-.42Z" clip-rule="evenodd"/></svg>