<svg xmlns="http://www.w3.org/2000/svg" viewBox="0 0 81 79"><path fill-rule="evenodd" d="M29.82 7.55a253.4 253.4 0 0 1 1.98 6.44c-.02.05-4.2 1.46-9.28 3.13l-9.26 3.03.75 2.32.75 2.32 9.26-3.03 9.26-3.04.98 3.02.97 3.02-4.88 1.6-4.88 1.6-.78-.1c-.43-.05-1.5-.29-2.37-.54l-3.04-.86-1.5-.4c-.03.01 1.87 5.97 4.21 13.23 2.35 7.27 4.3 13.2 4.33 13.19.04-.01.5-.74 1.03-1.62a321.8 321.8 0 0 0 2.63-4.39l1.18-2 4.6-1.52 4.61-1.51.03.26c0 .14.08 1.04.15 2 .07.96.18 2.35.26 3.08.19 1.97.24 3.28.12 3.21l-1.72-.96-4.38-2.47a38.88 38.88 0 0 0-2.85-1.54c-.05.02-.46.54-.91 1.16a39.9 39.9 0 0 1-1.06 1.42l-.24.29 4.75 3.66c2.6 2.01 4.8 3.68 4.85 3.7.16.05-3.1 6.14-3.85 7.19-.92 1.29-1.72 2.16-4.19 4.53-4.44 4.3-5.15 5.2-6.05 7.7-.58 1.6-.62 1.53.57 1.04 6.89-2.82 14.81-10.28 18.35-17.28.32-.64.65-1.16.72-1.16.08 0 .77.18 1.54.38 9.18 2.46 15.89 2.86 27.82 1.66 2.1-.21 2.17-.22 2.25-.47.07-.24 1.33-3.28 3.14-7.64l.78-1.88-1.02.26c-.55.14-1.33.4-1.73.56-1.18.5-7.55 2.06-10.07 2.46-7.2 1.13-14.27 1.06-20.28-.22-1.01-.21-1.2-.3-1.21-.5 0-.18.5-7.48.8-11.55.07-1.04-.56-.73 6-2.92l5.53-1.84.58 1.71c.37 1.08.63 1.7.7 1.66l2.73-2.1 2.63-2.05-2.17-6.75-2.18-6.74.59-1.68c.32-.92.58-1.7.56-1.74 0-.03-1.41-.42-3.11-.87l-4.54-1.19c-1.38-.36-1.44-.37-1.46-.12v1.7a7.2 7.2 0 0 1-.1 1.55c-.06.06-2.6.93-5.64 1.93l-5.54 1.82-.98-3.02-.97-3.01 11.99-3.96 11.98-3.96.42-.4c.74-.71 2.03-2.2 1.98-2.27-.02-.05-1.64-.8-3.58-1.68A33624.44 33624.44 0 0 1 54.79.96L54.46.8l-.3 1.03c-.68 2.37-1.76 4.7-2.51 5.48l-.4.4-6.59 2.16-6.59 2.16-1.16-3.6c-1.36-4.22-1.4-3.78.3-4.44l1.22-.48-.06-1.4a19.2 19.2 0 0 0-.1-1.42c-.03-.02-3.7.15-5.43.24l-3.12.14c-.93.04-1.74.08-1.8.1-.07.03.6 2.25 1.9 6.39Zm-26.47 2.7c.3.9.84 3.69 1.04 5.3.7 5.56.25 16.9-.86 22.03-.17.76-.3 1.4-.29 1.42.01.02-.17.87-.4 1.88C.82 49.78.62 51.25.86 55.4c.06 1.03.1 2 .08 2.15-.06.55.16.19.8-1.28l2.76-6.33c.56-1.28 1.4-3.19 1.84-4.24l1.55-3.55.72-1.63.83 2.5c.72 2.16 4.27 13.08 10 30.74l1.62 4.97 1.76-1.72c1.88-1.84 2.48-2.63 2.7-3.59.29-1.25.6-.19-6.13-21.05l-6.21-19.25 1.63-1.54c.9-.85 1.63-1.57 1.61-1.61-.02-.08-1.97-.32-4.6-.59a4.39 4.39 0 0 1-1.4-.26c-.2-.6-.21-5.8-.03-7.88.4-4.5 1.37-6.75 3.5-8.09l.44-.27-.52-1.6-.51-1.58-1.88-.07a858.45 858.45 0 0 0-8.12-.22c-.2-.01-.2.07.05.83Zm34.56 22.81 1.22 3.78-5.02 1.64-5.02 1.64-1.22-3.77-1.21-3.77 5.01-1.65 5.02-1.64 1.22 3.77Zm17.87-5.85 1.21 3.77-5.79 1.9-5.79 1.9L44.2 31l-1.22-3.77 5.79-1.9 5.79-1.9 1.22 3.78Z" clip-rule="evenodd"/></svg>