<svg xmlns="http://www.w3.org/2000/svg" fill="none" viewBox="0 0 133 133"><g clip-path="url(#a)"><path fill="#fff" d="M66.5 132.712c36.568 0 66.211-29.644 66.211-66.212 0-36.568-29.643-66.212-66.21-66.212C29.932.288.288 29.932.288 66.5c0 36.568 29.644 66.212 66.211 66.212Z"/><path fill="#000" d="M66.5 133C29.832 133 0 103.169 0 66.5 0 29.832 29.832 0 66.5 0 103.17 0 133 29.832 133 66.5c0 36.669-29.831 66.5-66.5 66.5ZM66.5.577C30.15.577.577 30.15.577 66.5S30.15 132.423 66.5 132.423s65.923-29.573 65.923-65.923S102.85.577 66.5.577Z"/><path fill="#fff" d="M66.5 118.152c36.568 0 66.211-23.125 66.211-51.652s-29.643-51.653-66.21-51.653C29.932 14.847.288 37.973.288 66.5c0 28.527 29.644 51.652 66.211 51.652Z"/><path fill="#000" d="M66.5 118.441C29.832 118.441 0 95.14 0 66.5c0-28.64 29.832-51.94 66.5-51.94 36.669 0 66.5 23.3 66.5 51.94 0 28.64-29.831 51.941-66.5 51.941Zm0-103.305C30.15 15.136.577 38.178.577 66.5c0 28.322 29.573 51.364 65.923 51.364s65.923-23.042 65.923-51.364c0-28.322-29.573-51.364-65.923-51.364Z"/><path fill="#fff" d="M66.5 103.593c36.568 0 66.211-16.607 66.211-37.093 0-20.486-29.643-37.093-66.21-37.093C29.932 29.407.288 46.014.288 66.5c0 20.486 29.644 37.093 66.211 37.093Z"/><path fill="#000" d="M66.5 103.882C29.832 103.882 0 87.112 0 66.5s29.832-37.382 66.5-37.382c36.669 0 66.5 16.77 66.5 37.382 0 20.613-29.831 37.382-66.5 37.382Zm0-74.187C30.15 29.695.577 46.205.577 66.5c0 20.294 29.573 36.805 65.923 36.805s65.923-16.51 65.923-36.805c0-20.294-29.573-36.805-65.923-36.805Z"/><path fill="#fff" d="M66.5 89.034c36.568 0 66.211-10.089 66.211-22.534 0-12.445-29.643-22.534-66.21-22.534C29.932 43.966.288 54.055.288 66.5c0 12.445 29.644 22.534 66.211 22.534Z"/><path fill="#000" d="M66.5 89.322C29.832 89.322 0 79.084 0 66.5s29.832-22.822 66.5-22.822c36.669 0 66.5 10.239 66.5 22.822 0 12.584-29.831 22.822-66.5 22.822Zm0-45.067C30.15 44.255.577 54.235.577 66.5c0 12.266 29.573 22.246 65.923 22.246s65.923-9.98 65.923-22.246c0-12.266-29.573-22.245-65.923-22.245Z"/><path fill="#fff" d="M66.5 74.474c36.568 0 66.211-3.57 66.211-7.974s-29.643-7.974-66.21-7.974C29.932 58.526.288 62.096.288 66.5s29.644 7.974 66.211 7.974Z"/><path fill="#000" d="M66.5 74.763C33.812 74.763 0 71.673 0 66.5c0-5.172 33.812-8.263 66.5-8.263 32.689 0 66.5 3.092 66.5 8.263 0 5.172-33.811 8.263-66.5 8.263Zm0-15.949C27.067 58.814.577 62.788.577 66.5c0 3.712 26.49 7.686 65.923 7.686 39.433 0 65.923-3.974 65.923-7.686 0-3.712-26.49-7.686-65.923-7.686Z"/><path fill="#fff" d="M66.5 91.512c36.568 0 66.211-11.198 66.211-25.012s-29.643-25.012-66.21-25.012C29.932 41.488.288 52.686.288 66.5S29.933 91.512 66.5 91.512Z"/><path fill="#000" d="M66.5 91.8C29.832 91.8 0 80.45 0 66.5c0-13.95 29.832-25.3 66.5-25.3 36.669 0 66.5 11.35 66.5 25.3 0 13.95-29.831 25.3-66.5 25.3Zm0-50.024C30.15 41.776.577 52.866.577 66.5c0 13.633 29.573 24.724 65.923 24.724s65.923-11.092 65.923-24.724S102.85 41.776 66.5 41.776Z"/><path fill="#fff" d="M66.5 91.512c28.526 0 51.652-11.198 51.652-25.012S95.026 41.488 66.5 41.488c-28.527 0-51.652 11.198-51.652 25.012S37.973 91.512 66.5 91.512Z"/><path fill="#000" d="M66.5 91.8c-28.64 0-51.94-11.35-51.94-25.3 0-13.95 23.3-25.3 51.94-25.3 28.64 0 51.941 11.35 51.941 25.3 0 13.95-23.301 25.3-51.94 25.3Zm0-50.024c-28.322 0-51.364 11.09-51.364 24.724 0 13.633 23.042 24.724 51.364 24.724 28.322 0 51.364-11.092 51.364-24.724S94.822 41.776 66.5 41.776Z"/><path fill="#fff" d="M66.5 91.512c20.486 0 37.093-11.198 37.093-25.012S86.986 41.488 66.5 41.488c-20.486 0-37.093 11.198-37.093 25.012S46.014 91.512 66.5 91.512Z"/><path fill="#000" d="M66.5 91.8c-20.611 0-37.38-11.35-37.38-25.3 0-13.95 16.769-25.3 37.38-25.3 20.612 0 37.382 11.35 37.382 25.3-.001 13.95-16.77 25.3-37.381 25.3Zm0-50.024c-20.294 0-36.804 11.09-36.804 24.724 0 13.633 16.51 24.724 36.805 24.724 20.294 0 36.804-11.092 36.804-24.724s-16.51-24.724-36.804-24.724Z"/><path fill="#fff" d="M66.5 91.512c12.445 0 22.534-11.198 22.534-25.012S78.944 41.488 66.5 41.488c-12.445 0-22.534 11.198-22.534 25.012S54.055 91.512 66.5 91.512Z"/><path fill="#000" d="M66.5 91.8c-12.584 0-22.822-11.35-22.822-25.3 0-13.95 10.238-25.3 22.822-25.3s22.822 11.35 22.822 25.3c0 13.95-10.238 25.3-22.822 25.3Zm0-50.024c-12.266 0-22.245 11.09-22.245 24.724 0 13.633 9.98 24.724 22.245 24.724 12.266 0 22.246-11.092 22.246-24.724S78.766 41.776 66.5 41.776Z"/><path fill="#fff" d="M66.5 91.512c4.404 0 7.975-11.198 7.975-25.012s-3.57-25.012-7.975-25.012c-4.404 0-7.974 11.198-7.974 25.012s3.57 25.012 7.974 25.012Z"/><path fill="#000" d="M66.5 91.8c-4.632 0-8.262-11.113-8.262-25.3 0-14.187 3.63-25.3 8.263-25.3s8.262 11.113 8.262 25.3c0 14.188-3.63 25.3-8.262 25.3Zm0-50.024c-4.166 0-7.685 11.322-7.685 24.724 0 13.402 3.52 24.724 7.686 24.724s7.685-11.322 7.685-24.724c0-13.402-3.519-24.724-7.685-24.724Z"/></g><defs><clipPath id="a"><path fill="#fff" d="M0 0h133v133H0z"/></clipPath></defs></svg>