<svg xmlns="http://www.w3.org/2000/svg" fill="none" viewBox="0 0 755 755"><path fill="#C22EAB" d="m377.413 0 3.951 313.447L423.803 2.861l-34.598 311.557 80.286-303.016-72.623 304.943L513.782 25.492 404.236 319.199l151.77-274.281-144.809 278.019L595.523 69.386 417.646 327.503 631.733 98.524 423.485 332.826l240.603-200.934-235.462 206.934 263.472-169.844L432.99 345.413l282.347-136.179-278.825 143.252 296.942-100.45-294.316 107.902 307.035-63.198-305.344 70.916 312.474-24.987-311.745 32.855 313.176 13.601-313.42-5.704 309.132 51.984-310.344-44.176 300.4 89.579-302.562-81.979 287.115 125.815L434.86 406.105 704.338 566.25 430.91 412.948l247.755 192.047-252.517-185.742 222.277 221.038-227.778-215.365 193.43 246.677-199.585-241.724 161.649 268.578-168.367-264.418 127.419 286.407-134.597-283.105 91.257 299.895-98.787-297.499 53.713 308.835-61.48-307.383 15.353 313.095-23.239-312.609-23.239 312.609 15.353-313.095-61.479 307.383 53.712-308.835-98.787 297.499 91.257-299.895-134.597 283.105 127.419-286.407-168.367 264.418 161.649-268.578-199.585 241.724 193.43-246.677-227.778 215.365 222.277-221.038L76.162 604.995l247.755-192.047L50.489 566.25l269.477-160.145L29.771 524.644l287.115-125.815-302.562 81.979 300.4-89.579L4.381 435.405l309.131-51.984-313.42 5.704 313.177-13.601L1.523 342.669l312.475 24.987L8.653 296.74l307.035 63.198L21.372 252.036l296.942 100.45L39.489 209.234l282.347 136.179L62.728 168.982 326.2 338.826 90.738 131.892 331.34 332.826 123.093 98.524 337.18 327.503 159.303 69.386l184.326 253.551L198.82 44.917 350.59 319.2 241.044 25.492l116.914 290.853-72.622-304.943 80.285 303.016L331.023 2.861l42.439 310.586L377.413 0Z"/></svg>