<svg xmlns="http://www.w3.org/2000/svg"><defs><style>:root svg:not(:target){display:none}</style></defs><svg id="arrow" fill="none" stroke="#fff" stroke-width=".7" viewBox="0 0 8 8"><path id="right" d="M6 4H0m4-2 2 2-2 2"/></svg><svg id="logo" fill="url(#logo-gradient)" viewBox="0 0 50 40"><path fill="#fff" fill-rule="evenodd" d="M10.337 18.366C11.162 8.074 19.706 0 30.085 0c10.922 0 19.781 8.942 19.813 20 0 11.058-8.859 20-19.813 20-10.237 0-18.643-7.837-19.701-17.86L1 23.88l9.337-5.514Zm3.56 3.122c.758 8.356 7.71 14.89 16.188 14.89a16.08 16.08 0 0 0 10.84-4.196h-13.92l-3.683-4.488h13.24l.921-7.98-1.365.224-.477 4.359-.063.48-5.62 2.853.032-.448.571-6.218.095-.866-1.365.257-.064.865-.317 3.462-5.588 2.884.476-6.186v-.192l.063-.673-1.365.256-.063.834v.352l-.032.513-.19 2.596-5.494 2.885.254-5.32.064-.866v-.192l.032-.674-3.17.589Zm27.376 10.368a16.523 16.523 0 0 0 2.762-20.325l-1.79 13.31-5.62 2.853 5.208-.032-.56 4.194Zm1.853-21.694-6.31 3.59.445-3.846-7.398 4.263.349-3.814-7.271 4.23.254-3.814-8.896 5.254c1.747-7.163 8.147-12.467 15.786-12.467 5.342 0 10.079 2.594 13.041 6.604Z" clip-rule="evenodd"/><defs><linearGradient id="logo-gradient" x1="1" x2="44" y1="5" y2="7" gradientUnits="userSpaceOnUse"><stop stop-color="#10CFD9"/><stop offset="1" stop-color="#C22EAB"/></linearGradient></defs></svg><svg id="logo-brand" fill="currentcolor" viewBox="0 0 140 40"><path d="M5.222 3.043h19.36c-.256 2.152-.47 4.218-.725 6.285-.299 2.453-1.066 8.48-1.066 8.48s-2.218 2.066-2.943 2.668c.086.172 2.26 3.53 2.26 3.53s-1.748 13.688-1.833 13.947H1c1.407-11.666 2.814-23.245 4.222-34.91Zm3.624 27.936c1.706 0 3.327 0 4.947-.043.17 0 .47-.301.512-.473.298-2.066.511-4.133.767-6.285H9.657c-.256 2.239-.555 4.477-.81 6.801Zm2.559-20.877c-.256 2.282-.554 4.52-.81 6.888h4.904c.213 0 .511-.259.554-.474.299-2.11.512-4.218.768-6.414h-5.416ZM107.479 30.893c.256-2.195.554-4.476.853-6.844h-12.41c.854-7.102 1.706-14.076 2.56-21.049h19.359c-.469 3.745-.895 7.447-1.364 11.192h-6.951c.171-1.378.298-2.712.469-4.133h-5.373c-.299 2.239-.554 4.477-.853 6.888h12.367c-.853 7.102-1.706 14.033-2.559 21.006h-19.36c.469-3.745.895-7.447 1.365-11.149h6.993c-.171 1.378-.341 2.669-.469 4.046h5.373v.043ZM62.32 37.997H42.96a9749.905 9749.905 0 0 1 4.264-34.91h19.36a8677.493 8677.493 0 0 0-4.265 34.91Zm-6.099-7.06c.853-6.973 1.706-13.86 2.559-20.834h-5.416c-.853 6.974-1.706 13.86-2.558 20.834h5.415ZM26.202 3.043h19.36c-.34 2.841-2.26 18.337-2.26 18.337s-3.198 3.229-4.946 5.123c1.15 1.334 3.795 4.907 3.795 4.907s-.555 4.347-.81 6.586H34.39c.085-.861.469-3.745.469-3.745l-3.07-3.96-1.877-.086c-.341 2.54-.597 5.122-.938 7.79H21.98c1.408-11.621 2.815-23.244 4.222-34.952Zm4.563 19.973h1.706s4.179-3.917 4.222-4.218c.298-2.239.852-6.715.852-6.715s.17-1.292.256-1.98h-5.416c-.511 4.26-1.108 8.609-1.62 12.913ZM68.418 3.043h19.36c-.299 2.367-.555 4.649-.853 7.016H74.558c-.298 2.325-.554 4.563-.853 6.974h10.277c-.298 2.41-.597 4.649-.895 7.016H72.81c-.555 4.692-1.152 9.298-1.706 13.947h-6.993c1.45-11.666 2.857-23.245 4.306-34.953ZM125.049 10.06h-6.226c.299-2.411.554-4.65.81-7.017h19.488c-.256 2.281-.554 4.563-.81 6.973h-6.268a6868.363 6868.363 0 0 0-3.369 27.98h-6.951c1.109-9.341 2.217-18.553 3.326-27.937ZM92.383 37.996h-6.994c.981-8.05 2.943-24.106 2.943-24.106l7.335-3.874H88.8s.682-5.423.853-6.973h6.993a11148.924 11148.924 0 0 1-4.264 34.953Z"/></svg><svg id="burger" fill="none" stroke="#fff" stroke-linecap="square" stroke-width=".8" viewBox="0 0 8 8"><path d="M1 2.5h6m-4 3h4"/></svg><svg id="cross" fill="none" stroke="#fff" stroke-width=".8" viewBox="0 0 8 8"><path d="m1 1 6 6m0-6L1 7"/></svg><svg id="arrow-simple" fill="currentcolor" viewBox="0 0 58 58"><path d="M22.246 45.758v-8.5l8.5-8.5-8.5-8.5v-8.5l17 17-17 17Z"/></svg><svg id="arrow-simple-dark" fill="#fff" viewBox="0 0 58 58"><path d="M22.246 45.758v-8.5l8.5-8.5-8.5-8.5v-8.5l17 17-17 17Z"/></svg><svg id="plus" fill="none" stroke="currentcolor" stroke-linecap="square" stroke-width=".7" viewBox="0 0 8 8"><path d="M4 1v6M1 4h6"/></svg><svg id="minus" fill="none" stroke="currentcolor" stroke-linecap="square" stroke-width=".7" viewBox="0 0 8 8"><path d="M1 4h6"/></svg><svg id="instagram" fill="currentcolor" viewBox="0 0 42 42"><path d="M12.05 1C5.957 1 1 5.936 1 12.004v17.607c0 6.068 4.957 11.004 11.05 11.004h17.68c6.093 0 11.05-4.936 11.05-11.004V12.004C40.78 5.937 35.823 1 29.73 1H12.05Zm0 4.402h17.68c3.655 0 6.63 2.962 6.63 6.602v17.607c0 3.64-2.975 6.603-6.63 6.603H12.05c-3.655 0-6.63-2.963-6.63-6.603V12.004c0-3.64 2.975-6.602 6.63-6.602Zm19.89 2.2c-.586 0-1.148.232-1.563.645a2.196 2.196 0 0 0 0 3.113 2.214 2.214 0 0 0 3.126 0 2.196 2.196 0 0 0 0-3.113 2.215 2.215 0 0 0-1.563-.644ZM20.89 9.804c-6.093 0-11.05 4.937-11.05 11.005 0 6.067 4.957 11.004 11.05 11.004 6.093 0 11.05-4.937 11.05-11.004 0-6.068-4.957-11.005-11.05-11.005Zm0 4.402c3.655 0 6.63 2.962 6.63 6.603 0 3.64-2.975 6.602-6.63 6.602s-6.63-2.962-6.63-6.602 2.975-6.603 6.63-6.603Z"/></svg><svg id="telegram" fill="currentcolor" viewBox="0 0 42 42"><path d="M37.92 2.003c-.541.024-1.046.183-1.49.365-.417.168-2.007.856-4.512 1.94-2.507 1.083-5.826 2.52-9.367 4.056-7.082 3.071-15.045 6.528-19.123 8.297-.153.067-.688.24-1.256.686C1.604 17.794 1 18.721 1 19.753c0 .833.393 1.66.889 2.153.495.494 1.019.738 1.468.923 1.628.67 6.679 2.754 7.632 3.147.336 1.037 2.164 6.676 2.588 8.058.28.912.545 1.483.892 1.937.173.226.374.425.618.58.098.063.205.11.313.155l.006.003c.025.01.046.027.072.036.047.017.08.019.143.033.254.083.51.135.739.135.975 0 1.572-.542 1.572-.542l.036-.026 5.016-4.375 6.083 5.803c.086.122.884 1.227 2.646 1.227 1.046 0 1.876-.53 2.409-1.093.533-.564.864-1.156 1.006-1.9v-.004c.132-.703 5.738-29.726 5.738-29.726l-.01.039c.164-.755.207-1.459.026-2.153-.18-.694-.658-1.36-1.25-1.717a2.977 2.977 0 0 0-1.712-.443Zm-.312 3.512c-.008.05.006.025-.007.082l-.003.02-.003.02s-5.537 28.652-5.742 29.743c.015-.083-.053.081-.123.18-.1-.069-.303-.157-.303-.157l-.033-.036-8.31-7.927-5.875 5.12 1.748-7.056s10.926-11.405 11.584-12.069c.53-.531.642-.716.642-.9 0-.245-.127-.423-.41-.423-.255 0-.598.25-.782.368-2.388 1.535-12.873 7.697-17.573 10.454-.747-.309-5.936-2.45-7.694-3.174l.022-.01c4.08-1.77 12.039-5.227 19.12-8.297 3.54-1.536 6.862-2.974 9.367-4.057a717.25 717.25 0 0 1 4.375-1.88Z"/></svg><svg id="search" fill="currentcolor" viewBox="0 0 42 42"><path fill-rule="evenodd" d="M9 19c0-5.523 4.477-10 10-10s10 4.477 10 10-4.477 10-10 10S9 24.523 9 19ZM19 5C11.268 5 5 11.268 5 19s6.268 14 14 14c3.152 0 6.06-1.041 8.4-2.8.056.075.118.146.186.214l7 7a2 2 0 1 0 2.828-2.828l-7-7a2.017 2.017 0 0 0-.213-.186A13.938 13.938 0 0 0 33 19c0-7.732-6.268-14-14-14Z" clip-rule="evenodd"/></svg><svg id="percent" fill="currentcolor" viewBox="0 0 33 26"><path fill-rule="evenodd" d="M.236 12.176v-12h12v12h-12Zm3.572-3.57v-4.86h4.856v4.86H3.808Zm15.24-8.43h4.863l-11.5 25H7.548l11.5-25Zm.98 13.104v12h12v-12h-12Zm3.572 3.57v4.86h4.856v-4.86H23.6Z" clip-rule="evenodd"/></svg><svg id="star" fill="#FDB811" viewBox="0 0 24 24"><path d="M12 17.27 18.18 21l-1.64-7.03L22 9.24l-7.19-.61L12 2 9.19 8.63 2 9.24l5.46 4.73L5.82 21 12 17.27z"/></svg><svg id="star-multi" fill="#C22EAB" viewBox="0 0 756 756"><path d="m378.413 0 3.951 313.447L424.803 2.861l-34.598 311.557 80.286-303.016-72.623 304.943L514.782 25.492 405.236 319.199l151.77-274.281-144.809 278.019L596.523 69.386 418.646 327.503 632.733 98.524 424.485 332.826l240.603-200.934-235.462 206.934 263.472-169.844L433.99 345.413l282.347-136.179-278.825 143.252 296.942-100.45-294.316 107.902 307.035-63.198-305.344 70.916 312.474-24.987-311.745 32.855 313.176 13.601-313.42-5.704 309.132 51.984-310.344-44.176 300.4 89.579-302.562-81.979 287.115 125.815L435.86 406.105 705.338 566.25 431.91 412.948l247.755 192.047-252.517-185.742 222.277 221.038-227.778-215.365 193.43 246.677-199.585-241.724 161.649 268.578-168.367-264.418 127.419 286.407-134.597-283.105 91.257 299.895-98.787-297.499 53.713 308.835-61.48-307.383 15.353 313.095-23.239-312.609-23.239 312.609 15.353-313.095-61.479 307.383 53.712-308.835-98.787 297.499 91.257-299.895-134.597 283.105 127.419-286.407-168.367 264.418 161.649-268.578-199.585 241.724 193.43-246.677-227.778 215.365 222.277-221.038L77.162 604.995l247.755-192.047L51.489 566.25l269.477-160.145L30.771 524.644l287.115-125.815-302.562 81.979 300.4-89.579L5.381 435.405l309.131-51.984-313.42 5.704 313.177-13.601L2.523 342.669l312.475 24.987L9.653 296.74l307.035 63.198L22.372 252.036l296.942 100.45L40.489 209.234l282.347 136.179L63.728 168.982 327.2 338.826 91.738 131.892 332.34 332.826 124.093 98.524 338.18 327.503 160.303 69.386l184.326 253.551L199.82 44.917 351.59 319.2 242.044 25.492l116.914 290.853-72.622-304.943 80.285 303.016L332.023 2.861l42.439 310.586L378.413 0Z"/></svg></svg>